<?xml version="1.0" encoding="UTF-8" standalone="no"?><!-- Generator: Gravit.io --><svg xmlns="http://www.w3.org/2000/svg" xmlns:xlink="http://www.w3.org/1999/xlink" style="isolation:isolate" viewBox="899.76 559.989 289.24 34.014" width="289.24pt" height="34.014pt"><defs><clipPath id="_clipPath_A2IyCnnjUZIlcJiEnwEMMjBH6yu1dzo3"><rect x="899.76" y="559.989" width="289.24" height="34.014"/></clipPath></defs><g clip-path="url(#_clipPath_A2IyCnnjUZIlcJiEnwEMMjBH6yu1dzo3)"><rect x="899.76" y="559.989" width="289.24" height="34.014" style="fill:rgb(225,225,225)" fill-opacity="0"/><g style="isolation:isolate"><path d=" M 1188 559.99 C 1188.27 559.99 1188.52 560.09 1188.71 560.28 C 1188.89 560.47 1189 560.72 1189 560.99 C 1189 561.25 1188.89 561.51 1188.71 561.7 C 1188.52 561.88 1188.27 561.99 1188 561.99 L 1179 561.99 L 1176.75 561.99 C 1175.22 562 1173.76 562.63 1172.7 563.73 C 1171.6 564.88 1170.99 566.4 1171 567.99 C 1171 567.99 1171 567.99 1171 567.99 L 1171 569.99 C 1171 569.99 1171 569.99 1171 569.99 C 1170.99 571.58 1171.6 573.1 1172.7 574.25 C 1173.76 575.35 1175.22 575.98 1176.75 575.99 L 1179 575.99 L 1181.25 575.99 C 1181.25 575.99 1181.25 575.99 1181.25 575.99 C 1183.33 576 1185.31 576.85 1186.74 578.35 C 1188.2 579.87 1189.01 581.89 1189 583.99 L 1189 585.99 C 1189.01 588.09 1188.2 590.11 1186.74 591.63 C 1185.31 593.13 1183.33 593.98 1181.25 593.99 C 1181.25 593.99 1181.25 593.99 1181.25 593.99 L 1179 593.99 L 1170 593.99 C 1169.73 593.99 1169.48 593.88 1169.29 593.7 C 1169.11 593.51 1169 593.25 1169 592.99 C 1169 592.72 1169.11 592.47 1169.29 592.28 C 1169.48 592.09 1169.73 591.99 1170 591.99 L 1179 591.99 L 1181.25 591.99 C 1182.78 591.98 1184.24 591.35 1185.3 590.25 C 1186.4 589.1 1187.01 587.58 1187 585.99 C 1187 585.99 1187 585.99 1187 585.99 L 1187 583.99 C 1187 583.99 1187 583.99 1187 583.99 C 1187.01 582.4 1186.4 580.88 1185.3 579.73 C 1184.24 578.63 1182.78 578 1181.25 577.99 L 1179 577.99 L 1176.75 577.99 C 1176.75 577.99 1176.75 577.99 1176.75 577.99 C 1174.67 577.98 1172.69 577.13 1171.26 575.63 C 1169.8 574.11 1168.99 572.09 1169 569.99 L 1169 567.99 C 1168.99 565.89 1169.8 563.87 1171.26 562.35 C 1172.69 560.85 1174.67 560 1176.75 559.99 C 1176.75 559.99 1176.75 559.99 1176.75 559.99 L 1179 559.99 L 1188 559.99 Z " fill="rgb(0,0,0)"/><path d=" M 1134 561.99 C 1133.73 561.99 1133.48 561.88 1133.29 561.7 C 1133.11 561.51 1133 561.25 1133 560.99 C 1133 560.72 1133.11 560.47 1133.29 560.28 C 1133.48 560.09 1133.73 559.99 1134 559.99 L 1143 559.99 L 1145.25 559.99 C 1145.25 559.99 1145.25 559.99 1145.25 559.99 C 1147.33 560 1149.31 560.85 1150.74 562.35 C 1152.2 563.87 1153.01 565.89 1153 567.99 L 1153 569.99 C 1153.01 572.09 1152.2 574.11 1150.74 575.63 C 1149.31 577.13 1147.33 577.98 1145.25 577.99 C 1145.25 577.99 1145.25 577.99 1145.25 577.99 L 1141.996 577.99 L 1152.8 592.4 L 1152.8 592.4 C 1153.132 592.841 1153.07 593.448 1152.663 593.755 L 1152.663 593.755 L 1152.663 593.755 C 1152.188 594.113 1151.532 594.046 1151.2 593.605 L 1151.2 593.605 L 1139.488 577.99 L 1135 577.99 L 1135 592.99 C 1135 593.25 1134.89 593.51 1134.71 593.7 C 1134.52 593.88 1134.27 593.99 1134 593.99 C 1133.73 593.99 1133.48 593.88 1133.29 593.7 C 1133.11 593.51 1133 593.25 1133 592.99 L 1133 575.99 L 1145.25 575.99 C 1146.78 575.98 1148.24 575.35 1149.3 574.25 C 1150.4 573.1 1151.01 571.58 1151 569.99 C 1151 569.99 1151 569.99 1151 569.99 L 1151 567.99 C 1151 567.99 1151 567.99 1151 567.99 C 1151.01 566.4 1150.4 564.88 1149.3 563.73 C 1148.24 562.63 1146.78 562 1145.25 561.99 L 1143 561.99 L 1134 561.99 Z " fill="rgb(0,0,0)"/><path d=" M 1116 591.989 C 1117.306 591.989 1117.307 593.989 1116 593.989 L 1116 593.989 L 1097 593.989 L 1097 559.989 L 1116 559.989 C 1117.306 559.989 1117.307 561.989 1116 561.989 L 1116 561.989 L 1099 561.989 L 1099 575.989 L 1116.012 575.999 L 1116.012 575.999 C 1116.586 575.999 1117 576.428 1117 576.999 L 1117 576.999 L 1117 576.999 L 1117 576.999 C 1117 577.576 1116.576 577.999 1116 577.999 L 1116 577.999 L 1116 577.999 L 1099 577.989 L 1099 591.989 L 1116 591.989 Z " fill="rgb(0,0,0)"/><path d=" M 1080 591.99 C 1080.27 591.99 1080.52 592.09 1080.71 592.28 C 1080.89 592.47 1081 592.72 1081 592.99 C 1081 593.25 1080.89 593.51 1080.71 593.7 C 1080.52 593.88 1080.27 593.99 1080 593.99 L 1061 593.99 L 1061 584.33 L 1061 560.99 C 1061 560.72 1061.11 560.47 1061.29 560.28 C 1061.48 560.09 1061.73 559.99 1062 559.99 C 1062.27 559.99 1062.52 560.09 1062.71 560.28 C 1062.89 560.47 1063 560.72 1063 560.99 L 1063 584.33 L 1063 591.99 L 1080 591.99 Z " fill="rgb(0,0,0)"/><path d=" M 1044 591.99 C 1044.27 591.99 1044.52 592.09 1044.71 592.28 C 1044.89 592.47 1045 592.72 1045 592.99 C 1045 593.25 1044.89 593.51 1044.71 593.7 C 1044.52 593.88 1044.27 593.99 1044 593.99 L 1025 593.99 L 1025 569.91 L 1025 560.99 C 1025 560.72 1025.11 560.47 1025.29 560.28 C 1025.48 560.09 1025.73 559.99 1026 559.99 C 1026.27 559.99 1026.52 560.09 1026.71 560.28 C 1026.89 560.47 1027 560.72 1027 560.99 L 1027 569.91 L 1027 591.99 L 1044 591.99 Z " fill="rgb(0,0,0)"/><path d=" M 1008 591.99 C 1009.306 591.99 1009.307 593.99 1008 593.99 L 1008 593.99 L 989 593.99 L 989 559.99 L 1008 559.99 C 1009.306 559.99 1009.307 561.99 1008 561.99 L 1008 561.99 L 991 561.99 L 991 575.99 L 1008.012 575.999 L 1008.012 575.999 C 1008.586 576 1009 576.429 1009 577 L 1009 577 L 1009 577 L 1009 577 C 1009 577.576 1008.576 578 1008 577.999 L 1008 577.999 L 1008 577.999 L 991 577.99 L 991 591.99 L 1008 591.99 Z " fill="rgb(0,0,0)"/><path d=" M 972 559.99 C 972.27 559.99 972.52 560.09 972.71 560.28 C 972.89 560.47 973 560.72 973 560.99 C 973 561.25 972.89 561.51 972.71 561.7 C 972.52 561.88 972.27 561.99 972 561.99 L 963 561.99 L 960.75 561.99 C 959.22 562 957.76 562.63 956.7 563.73 C 955.6 564.88 954.99 566.4 955 567.99 C 955 567.99 955 567.99 955 567.99 L 955 569.99 C 955 569.99 955 569.99 955 569.99 C 954.99 571.58 955.6 573.1 956.7 574.25 C 957.76 575.35 959.22 575.98 960.75 575.99 L 963 575.99 L 965.25 575.99 C 965.25 575.99 965.25 575.99 965.25 575.99 C 967.33 576 969.31 576.85 970.74 578.35 C 972.2 579.87 973.01 581.89 973 583.99 L 973 585.99 C 973.01 588.09 972.2 590.11 970.74 591.63 C 969.31 593.13 967.33 593.98 965.25 593.99 C 965.25 593.99 965.25 593.99 965.25 593.99 L 963 593.99 L 954 593.99 C 953.73 593.99 953.48 593.88 953.29 593.7 C 953.11 593.51 953 593.25 953 592.99 C 953 592.72 953.11 592.47 953.29 592.28 C 953.48 592.09 953.73 591.99 954 591.99 L 963 591.99 L 965.25 591.99 C 966.78 591.98 968.24 591.35 969.3 590.25 C 970.4 589.1 971.01 587.58 971 585.99 C 971 585.99 971 585.99 971 585.99 L 971 583.99 C 971 583.99 971 583.99 971 583.99 C 971.01 582.4 970.4 580.88 969.3 579.73 C 968.24 578.63 966.78 578 965.25 577.99 L 963 577.99 L 960.75 577.99 C 960.75 577.99 960.75 577.99 960.75 577.99 C 958.67 577.98 956.69 577.13 955.26 575.63 C 953.8 574.11 952.99 572.09 953 569.99 L 953 567.99 C 952.99 565.89 953.8 563.87 955.26 562.35 C 956.69 560.85 958.67 560 960.75 559.99 C 960.75 559.99 960.75 559.99 960.75 559.99 L 963 559.99 L 972 559.99 Z " fill="rgb(0,0,0)"/></g><g style="isolation:isolate"><linearGradient id="_lgradient_2" x1="0.5" y1="0" x2="0.5000000000000001" y2="1" gradientTransform="matrix(36,0,0,6.034,900,587.97)" gradientUnits="userSpaceOnUse"><stop offset="0%" stop-opacity="1" style="stop-color:rgb(26,92,255)"/><stop offset="100%" stop-opacity="1" style="stop-color:rgb(0,123,255)"/></linearGradient><path d=" M 902.97 593.97 C 902.17 593.97 901.41 593.64 900.86 593.07 C 900.3 592.51 899.99 591.74 900 590.94 C 900.01 590.15 900.33 589.39 900.9 588.83 C 901.47 588.27 902.24 587.97 903.03 587.97 C 905.29 588 907.54 588.01 909.8 588 C 912.78 588 915.77 588 918.76 587.99 L 933 587.97 C 933.79 587.97 934.56 588.29 935.12 588.85 C 935.68 589.41 936 590.18 936 590.97 C 936 591.77 935.68 592.53 935.12 593.09 C 934.56 593.66 933.8 593.97 933 593.97 C 928.26 593.98 923.51 593.98 918.77 593.99 C 915.78 594 912.79 594 909.81 594 C 907.53 594.01 905.25 594 902.97 593.97 Z " fill="url(#_lgradient_2)"/><path d=" M 911.26 583.01 L 909.38 583.01 C 906.86 583.02 904.44 582.05 902.62 580.31 C 900.8 578.57 899.77 576.16 899.76 573.64 C 899.76 573.64 899.76 573.64 899.76 573.63 L 899.76 571.51 L 899.76 563 C 899.76 562.2 900.08 561.44 900.64 560.88 C 901.2 560.32 901.96 560 902.76 560 C 903.55 560 904.32 560.32 904.88 560.88 C 905.44 561.44 905.76 562.2 905.76 563 L 905.76 571.51 L 905.76 573.62 C 905.76 574.51 906.13 575.36 906.77 575.97 C 907.47 576.64 908.4 577.01 909.36 577.01 C 909.37 577.01 909.37 577.01 909.37 577.01 L 911.26 577.01 C 911.27 577.01 911.27 577.01 911.27 577.01 C 912.24 577.01 913.17 576.64 913.87 575.97 C 914.51 575.36 914.87 574.51 914.88 573.62 L 914.88 569.38 C 914.88 569.37 914.88 569.37 914.88 569.37 C 914.89 566.85 915.92 564.44 917.74 562.7 C 919.56 560.96 921.98 559.99 924.5 560 L 926.38 560 C 928.9 559.99 931.32 560.96 933.14 562.7 C 934.95 564.44 935.99 566.85 936 569.37 C 936 569.37 936 569.37 936 569.38 L 936 571.51 L 936 580.01 C 936 580.81 935.68 581.57 935.12 582.13 C 934.56 582.69 933.8 583.01 933 583.01 C 932.2 583.01 931.44 582.69 930.88 582.13 C 930.32 581.57 930 580.81 930 580.01 L 930 571.51 L 930 569.39 C 929.99 568.5 929.63 567.65 928.99 567.04 C 928.29 566.37 927.36 566 926.39 566 C 926.39 566 926.39 566 926.38 566 L 924.49 566 C 924.49 566 924.49 566 924.48 566 C 923.52 566 922.59 566.37 921.89 567.04 C 921.25 567.65 920.88 568.5 920.88 569.39 L 920.88 573.63 C 920.88 573.64 920.88 573.64 920.88 573.64 C 920.87 576.16 919.83 578.57 918.02 580.31 C 916.2 582.05 913.78 583.02 911.26 583.01 Z " fill="rgb(0,0,0)"/></g></g></svg>